<svg xmlns="http://www.w3.org/2000/svg" width="24" height="24" viewBox="0 0 24 24" fill="none">
  <g stroke="currentColor" stroke-width="2" stroke-linecap="round" stroke-linejoin="round">
    <path d="M10.5 13.5a4.5 4.5 0 0 1 0-6.4l.8-.8a4.5 4.5 0 0 1 6.4 6.4l-.8.8"/>
    <path d="M13.5 10.5a4.5 4.5 0 0 1 0 6.4l-.8.8a4.5 4.5 0 0 1-6.4-6.4l.8-.8"/>
    <!-- sparkle -->
    <path d="M19 4l.5 1.2L21 6l-1.5.8L19 8l-.5-1.2L17 6l1.5-.8L19 4z" fill="currentColor" stroke="none" opacity=".25"/>
  </g>
</svg>