<svg xmlns="http://www.w3.org/2000/svg" width="24" height="24" viewBox="0 0 24 24" fill="none">
  <g stroke="currentColor" stroke-width="2" stroke-linecap="round" stroke-linejoin="round">
    <circle cx="12" cy="12" r="3"/>
    <path d="M19.4 15a7.7 7.7 0 0 0 .1-1l2-1.1-2-3.4-2.3.5a7.6 7.6 0 0 0-1.7-1l-.3-2.3H9l-.3 2.3a7.6 7.6 0 0 0-1.7 1L4.7 9.5l-2 3.4 2 1.1a7.7 7.7 0 0 0 .1 1L2.7 16.1l2 3.4 2.3-.5c.5.4 1.1.7 1.7 1l.3 2.3h6l.3-2.3c.6-.3 1.2-.6 1.7-1l2.3.5 2-3.4-2-1.1z"/>
    <!-- cute dot -->
    <circle cx="20" cy="12" r="1" fill="currentColor" stroke="none" opacity=".25"/>
  </g>
</svg>